# xmcd
#
# Track frame offsets:
# 150
# 19506
# 33805
# 53845
# 66963
# 80028
# 97867
# 108391
# 122218
# 136440
# 150688
# 163962
#
# Disc length: 2363 seconds
#
# Revision: 1
# Processed by: cddbd v1.5PL3 Copyright (c) Steve Scherf et al.
# Submitted via: Axialis_AX_CDPlayer 2.6
#
DISCID=9a09390c
DTITLE=Slim Dusty - Australiana
DYEAR=1900
DGENRE=
TTITLE0=grandfather Johnson
TTITLE1=Clancy Of The Overflow
TTITLE2=The Lame Fiddler
TTITLE3=A Squatters Prayer
TTITLE4=Henry Lawson
TTITLE5=Drought Time
TTITLE6=Stick To Him Bluey
TTITLE7=Written Afterwards
TTITLE8=The Bequest
TTITLE9=The Pubs Still Make A Quid
TTITLE10=A Drover's Life
TTITLE11=The Last Of The Breed
EXTD=
EXTT0=
EXTT1=
EXTT2=
EXTT3=
EXTT4=
EXTT5=
EXTT6=
EXTT7=
EXTT8=
EXTT9=
EXTT10=
EXTT11=
PLAYORDER=
